<?xml version="1.0" encoding="UTF-8"?>
<svg width="512" height="512" viewBox="0 0 512 512" fill="none" xmlns="http://www.w3.org/2000/svg">
  <path d="M256 50C142.8 50 50 142.8 50 256s92.8 206 206 206 206-92.8 206-206S369.2 50 256 50zm0 372c-91.9 0-166-74.1-166-166S164.1 90 256 90s166 74.1 166 166-74.1 166-166 166z" fill="#39FF14"/>
  <path d="M256 130c-69.2 0-125 55.8-125 125s55.8 125 125 125 125-55.8 125-125-55.8-125-125-125zm0 210c-47.1 0-85-37.9-85-85s37.9-85 85-85 85 37.9 85 85-37.9 85-85 85z" fill="#39FF14"/>
  <path d="M256 210c-25.4 0-46 20.6-46 46s20.6 46 46 46 46-20.6 46-46-20.6-46-46-46z" fill="#39FF14"/>
</svg> 